<svg xmlns="http://www.w3.org/2000/svg" viewBox="0 0 32 24.8"><defs><style>.cls-1{fill:none;}.cls-2{fill:#7abfbc;}</style></defs><title>Element 2</title><g id="Ebene_2" data-name="Ebene 2"><g id="v2_mobile" data-name="v2 mobile"><path class="cls-1" d="M22.55,4.22A.77.77,0,0,0,22,3.8H10a.77.77,0,0,0-.55.42l-3,5.58s2.61.81,9.54.81,9.78-.81,9.78-.81Z"/><path class="cls-2" d="M29.9,9.8,26.42,3.25A5,5,0,0,0,22,0H10A4.81,4.81,0,0,0,5.58,3.25L2.33,9.8C.43,10.28,0,11.36,0,13.3v6a.5.5,0,0,0,.5.5H.81v2a3,3,0,0,0,6,0v-2H25v2a3,3,0,1,0,6,0v-2h.46a.5.5,0,0,0,.5-.5v-6C32,11.36,32,10.61,29.9,9.8ZM5,17.3a2.5,2.5,0,1,1,2.5-2.5A2.51,2.51,0,0,1,5,17.3ZM6.46,9.8l3-5.58A.77.77,0,0,1,10,3.8H22a.77.77,0,0,1,.55.42L25.78,9.8s-3,.81-9.78.81S6.46,9.8,6.46,9.8ZM27,17.3a2.5,2.5,0,1,1,2.5-2.5A2.51,2.51,0,0,1,27,17.3Z"/></g></g></svg>